<?xml version="1.0" standalone="no"?>
<!DOCTYPE svg PUBLIC "-//W3C//DTD SVG 20010904//EN"
 "http://www.w3.org/TR/2001/REC-SVG-20010904/DTD/svg10.dtd">
<svg version="1.0" xmlns="http://www.w3.org/2000/svg"
 width="633.000000pt" height="633.000000pt" viewBox="0 0 633.000000 633.000000"
 preserveAspectRatio="xMidYMid meet">
<metadata>
Created by potrace 1.11, written by Peter Selinger 2001-2013
</metadata>
<g transform="translate(0.000000,633.000000) scale(0.100000,-0.100000)"
fill="#000000" stroke="none">
<path d="M3090 6316 c-25 -6 -203 -103 -395 -215 -193 -112 -393 -228 -445
-259 -52 -30 -113 -65 -135 -78 -22 -12 -98 -56 -168 -98 -71 -42 -133 -76
-138 -76 -5 0 -9 -4 -9 -10 0 -5 -5 -10 -10 -10 -6 0 -158 -86 -338 -191 -180
-106 -346 -202 -369 -215 -23 -13 -93 -54 -155 -90 -62 -37 -126 -74 -143 -84
-190 -110 -262 -154 -282 -176 -38 -42 -70 -97 -83 -145 -9 -32 -12 -418 -12
-1509 0 -1350 2 -1469 17 -1515 18 -52 44 -94 81 -133 17 -18 241 -153 454
-274 19 -11 159 -92 310 -181 151 -88 289 -168 307 -178 78 -44 106 -61 248
-144 146 -86 305 -178 375 -218 19 -11 49 -28 65 -38 17 -10 66 -39 110 -64
44 -25 96 -55 115 -67 236 -139 539 -313 568 -325 47 -20 156 -23 206 -6 22 7
130 66 240 130 111 64 210 122 221 128 11 6 38 22 60 36 22 14 47 29 55 32 8
4 31 17 50 28 46 28 275 161 320 186 19 11 107 63 196 115 89 52 167 98 175
101 8 4 28 15 44 26 17 10 46 27 65 38 54 31 257 150 435 253 88 51 187 109
220 128 33 18 65 37 70 42 6 4 42 24 80 45 39 21 77 43 85 49 8 7 35 22 60 35
25 13 52 29 60 35 8 7 32 21 54 31 54 28 111 86 144 148 l27 52 2 1500 3 1500
-29 61 c-35 73 -78 119 -157 164 -32 19 -68 39 -79 46 -11 6 -31 18 -45 25
-14 8 -36 21 -50 30 -14 9 -90 53 -170 99 -80 46 -152 89 -160 96 -8 7 -19 13
-23 13 -4 0 -33 15 -65 34 -62 37 -823 481 -884 516 -90 50 -373 215 -398 230
-15 10 -170 100 -225 131 -16 9 -59 35 -95 57 -36 21 -72 42 -80 46 -8 4 -33
18 -55 31 -134 84 -227 107 -325 82z m1665 -3412 c19 -14 20 -27 20 -254 0
-132 2 -241 5 -241 3 -1 110 -2 238 -3 286 -2 273 6 269 -143 -2 -80 -5 -97
-22 -109 -15 -11 -67 -14 -252 -14 -128 0 -233 -3 -234 -7 0 -5 -1 -113 -2
-241 -2 -282 4 -269 -128 -266 -46 1 -91 2 -100 3 -31 2 -39 51 -38 251 0 107
0 210 0 228 l-1 32 -239 0 c-210 0 -240 2 -252 17 -9 10 -15 46 -16 102 -2
110 3 128 35 138 15 5 127 9 250 8 143 0 222 3 223 10 0 5 0 113 1 239 1 280
-6 266 131 266 66 -1 98 -5 112 -16z"/>
</g>
</svg>
