<svg xmlns="http://www.w3.org/2000/svg" width="149" height="70" viewBox="0 0 149 70">
    <g fill="#FFF" fill-rule="nonzero">
        <path d="M88.542 22.007c-.204 0-.306-.099-.346-.296-.082-1.206-.673-2.274-3.038-2.274-1.855 0-3.16.475-3.16 2.293 0 3.994 8.094 1.523 8.094 6.742 0 2.827-2.508 3.836-4.914 3.836-3.853 0-5.178-2.59-5.178-4.231 0-.198.143-.336.347-.336h.876c.204 0 .327.158.347.316.02.87.632 2.906 3.629 2.906 1.916 0 3.364-.672 3.364-2.49 0-3.678-8.114-1.306-8.114-6.743 0-2.55 1.957-3.657 4.71-3.657 3.649 0 4.586 2.155 4.586 3.618 0 .178-.163.316-.346.316h-.857zM96.717 32.11h-1.203c-.143 0-.285-.06-.326-.238l-3.772-13.048a1.187 1.187 0 0 1-.081-.316c0-.139.101-.238.244-.238h1.06c.123 0 .306.08.367.336l3.14 11.428 3.14-11.408c.06-.217.183-.356.367-.356h1.019c.183 0 .306.1.367.356l3.16 11.408 3.12-11.408c.04-.178.122-.356.366-.356h1.02c.122 0 .224.1.224.238 0 .059 0 .118-.061.316l-3.752 13.048c-.04.139-.163.238-.367.238h-1.162c-.183 0-.285-.099-.346-.238l-3.1-11.269-3.078 11.27c-.04.138-.163.237-.346.237zM111.517 32.11c-.184 0-.326-.119-.326-.317V18.626c0-.197.142-.355.326-.355h.856a.36.36 0 0 1 .367.355v13.167c0 .198-.163.317-.367.317h-.856zM123.993 22.007c-.204 0-.306-.099-.347-.296-.081-1.206-.672-2.274-3.037-2.274-1.855 0-3.16.475-3.16 2.293 0 3.994 8.094 1.523 8.094 6.742 0 2.827-2.508 3.836-4.914 3.836-3.853 0-5.178-2.59-5.178-4.231 0-.198.143-.336.347-.336h.876c.204 0 .326.158.347.316.02.87.632 2.906 3.629 2.906 1.916 0 3.364-.672 3.364-2.49 0-3.678-8.114-1.306-8.114-6.743 0-2.55 1.957-3.657 4.709-3.657 3.65 0 4.587 2.155 4.587 3.618 0 .178-.163.316-.346.316h-.857zM135.898 22.007c-.203 0-.305-.099-.346-.296-.082-1.206-.673-2.274-3.038-2.274-1.855 0-3.16.475-3.16 2.293 0 3.994 8.094 1.523 8.094 6.742 0 2.827-2.508 3.836-4.913 3.836-3.853 0-5.179-2.59-5.179-4.231 0-.198.143-.336.347-.336h.877c.204 0 .326.158.346.316.02.87.632 2.906 3.63 2.906 1.916 0 3.363-.672 3.363-2.49 0-3.678-8.114-1.306-8.114-6.743 0-2.55 1.957-3.657 4.71-3.657 3.649 0 4.587 2.155 4.587 3.618 0 .178-.164.316-.347.316h-.857zM89.256 39.204a.626.626 0 0 1-.632.612H83.2v3.342h4.2c.346 0 .631.276.631.613v1.463a.626.626 0 0 1-.632.612h-4.2v4.508a.626.626 0 0 1-.631.613h-1.692a.626.626 0 0 1-.632-.613V37.741c0-.337.285-.613.632-.613h7.747c.346 0 .632.276.632.613v1.463zM91.518 50.967a.626.626 0 0 1-.632-.613V37.741c0-.337.285-.613.632-.613h1.692c.347 0 .632.276.632.613v12.613a.626.626 0 0 1-.632.613h-1.692zM104.24 50.255l-5.077-8.719v8.818a.626.626 0 0 1-.632.613h-1.61a.626.626 0 0 1-.633-.613V37.741c0-.337.286-.613.632-.613h2.222c.347 0 .632.296.734.474l4.73 8.245V37.74c0-.337.286-.613.632-.613h1.61c.347 0 .633.276.633.613v12.613a.626.626 0 0 1-.632.613h-1.631c-.224 0-.53.04-.979-.712zM123.626 50.354a.626.626 0 0 1-.632.613h-7.747a.626.626 0 0 1-.632-.613V37.741c0-.337.286-.613.632-.613h1.692c.347 0 .632.276.632.613v10.537h5.423c.347 0 .632.277.632.613v1.463zM127.132 50.611a.495.495 0 0 1-.49.356h-1.936c-.265 0-.469-.178-.469-.435 0-.119.061-.257.102-.376l4.608-12.593a.655.655 0 0 1 .611-.435h2.284c.346 0 .55.257.611.435l4.485 12.435c.02.06.163.396.163.534 0 .257-.203.435-.468.435h-2.04c-.325 0-.488-.178-.53-.336l-.815-2.392h-5.3l-.816 2.372zm3.527-10.142l-1.814 5.2h3.547l-1.733-5.2zM138.528 50.354V37.741c0-.337.285-.613.632-.613h4.73c2.854 0 4.709 1.265 4.709 3.855v.277c0 1.226-.632 2.194-1.713 2.689 1.407.632 2.018 1.74 2.018 2.945v.178c0 3.223-2.466 3.895-5.32 3.895h-4.425a.626.626 0 0 1-.631-.613zm2.956-7.71h2.201c1.02 0 1.958-.1 1.958-1.266v-.237c0-1.265-.938-1.325-1.958-1.325h-2.201v2.828zm0 5.634h2.405c1.285 0 2.06-.316 2.06-1.403v-.119c0-1.008-.775-1.423-2.06-1.423h-2.405v2.945zM59.374 16.274L32.125.391c-.894-.521-2.356-.521-3.25 0L1.625 16.274C.733 16.795 0 18.074 0 19.117v31.767c0 1.042.732 2.32 1.626 2.842l27.249 15.883c.894.521 2.356.521 3.25 0l27.25-15.883c.893-.521 1.625-1.8 1.625-2.842V19.117c0-1.042-.732-2.322-1.626-2.843zm-5.456 29.47c0 .349-.285.636-.63.636h-5.013v5.06a.637.637 0 0 1-.63.637h-1.688a.636.636 0 0 1-.63-.637v-5.06h-5.013a.636.636 0 0 1-.63-.636V44.04c0-.35.285-.637.63-.637h5.013v-5.06c0-.35.284-.637.63-.637h1.688c.346 0 .63.288.63.637v5.06h5.013c.345 0 .63.288.63.637v1.704z"/>
    </g>
</svg>
