<svg xmlns="http://www.w3.org/2000/svg" width="168" height="79" viewBox="0 0 168 79"><path d="M99.656 25.614c-.23 0-.345-.114-.391-.341-.093-1.389-.76-2.618-3.434-2.618-2.097 0-3.572.546-3.572 2.64 0 4.6 9.149 1.754 9.149 7.764 0 3.255-2.835 4.416-5.554 4.416-4.356 0-5.854-2.982-5.854-4.871 0-.228.161-.388.392-.388h.991c.23 0 .369.183.392.365.023 1.002.714 3.346 4.102 3.346 2.167 0 3.803-.774 3.803-2.868 0-4.235-9.173-1.503-9.173-7.763 0-2.937 2.213-4.212 5.324-4.212 4.125 0 5.185 2.481 5.185 4.166 0 .205-.184.364-.391.364h-.969zm9.241 11.634h-1.36c-.16 0-.322-.069-.368-.274l-4.264-15.025c-.046-.137-.092-.273-.092-.364 0-.16.115-.274.277-.274h1.198c.138 0 .346.091.415.387l3.549 13.159 3.55-13.136c.068-.25.207-.41.414-.41h1.152c.208 0 .346.114.415.41l3.572 13.136 3.526-13.136c.047-.205.139-.41.415-.41h1.153c.138 0 .253.114.253.274 0 .068 0 .136-.069.364l-4.24 15.025c-.047.16-.185.274-.415.274h-1.314c-.207 0-.323-.114-.392-.274l-3.503-12.976-3.48 12.976c-.046.16-.184.274-.392.274zm16.731 0c-.208 0-.369-.137-.369-.365V21.721c0-.228.161-.41.369-.41h.968a.41.41 0 0 1 .414.41v15.162c0 .228-.184.365-.414.365h-.968zm14.103-11.634c-.23 0-.345-.114-.392-.341-.092-1.389-.76-2.618-3.433-2.618-2.098 0-3.573.546-3.573 2.64 0 4.6 9.15 1.754 9.15 7.764 0 3.255-2.835 4.416-5.554 4.416-4.356 0-5.854-2.982-5.854-4.871 0-.228.161-.388.392-.388h.99c.231 0 .37.183.393.365.023 1.002.714 3.346 4.102 3.346 2.166 0 3.803-.774 3.803-2.868 0-4.235-9.173-1.503-9.173-7.763 0-2.937 2.213-4.212 5.324-4.212 4.125 0 5.185 2.481 5.185 4.166 0 .205-.184.364-.392.364h-.968zm13.459 0c-.23 0-.346-.114-.392-.341-.092-1.389-.76-2.618-3.434-2.618-2.097 0-3.572.546-3.572 2.64 0 4.6 9.15 1.754 9.15 7.764 0 3.255-2.836 4.416-5.555 4.416-4.356 0-5.854-2.982-5.854-4.871 0-.228.162-.388.392-.388h.991c.23 0 .369.183.392.365.023 1.002.714 3.346 4.102 3.346 2.167 0 3.803-.774 3.803-2.868 0-4.235-9.172-1.503-9.172-7.763 0-2.937 2.212-4.212 5.323-4.212 4.126 0 5.186 2.481 5.186 4.166 0 .205-.185.364-.392.364h-.968zm-52.727 19.802a.714.714 0 0 1-.714.706h-6.13v3.847h4.747c.392 0 .714.319.714.706v1.685a.714.714 0 0 1-.714.706h-4.748v5.19a.714.714 0 0 1-.714.706H90.99a.714.714 0 0 1-.714-.706V43.732c0-.387.322-.706.714-.706h8.758c.391 0 .714.319.714.706v1.684zm2.557 13.546a.714.714 0 0 1-.714-.706V43.732c0-.387.322-.706.714-.706h1.913c.392 0 .715.319.715.706v14.524a.714.714 0 0 1-.715.706h-1.913zm14.38-.82l-5.738-10.04v10.154a.714.714 0 0 1-.714.706h-1.82a.714.714 0 0 1-.715-.706V43.732c0-.387.322-.706.714-.706h2.512c.392 0 .715.341.83.546l5.347 9.494v-9.334c0-.387.322-.706.714-.706h1.82c.393 0 .715.319.715.706v14.524a.714.714 0 0 1-.714.706h-1.844c-.253 0-.599.045-1.106-.82zm21.917.114a.714.714 0 0 1-.715.706h-8.757a.714.714 0 0 1-.715-.706V43.732c0-.387.323-.706.715-.706h1.913c.391 0 .714.319.714.706v12.134h6.13c.392 0 .715.318.715.706v1.684zm3.963.296a.56.56 0 0 1-.553.41h-2.19c-.3 0-.53-.205-.53-.501 0-.136.07-.296.115-.433l5.209-14.501c.07-.205.3-.501.691-.501h2.582c.391 0 .622.296.69.5l5.071 14.32c.023.069.184.456.184.615 0 .296-.23.5-.53.5h-2.304c-.369 0-.553-.204-.6-.386l-.921-2.755h-5.992l-.922 2.732zm3.987-11.679l-2.051 5.988h4.01l-1.96-5.988zm8.895 11.383V43.732c0-.387.322-.706.714-.706h5.347c3.226 0 5.323 1.457 5.323 4.44v.318c0 1.411-.714 2.527-1.935 3.096 1.59.729 2.281 2.003 2.281 3.392v.205c0 3.711-2.788 4.485-6.015 4.485h-5.001a.714.714 0 0 1-.714-.706zm3.341-8.878h2.49c1.151 0 2.212-.114 2.212-1.457v-.274c0-1.457-1.06-1.525-2.213-1.525h-2.489v3.256zm0 6.488h2.72c1.452 0 2.327-.364 2.327-1.617v-.136c0-1.161-.875-1.64-2.327-1.64h-2.72v3.393zM67.161 18.367L36.34.44c-1.012-.588-2.666-.588-3.678 0L1.84 18.367C.827 18.955 0 20.398 0 21.575v35.85c0 1.177.827 2.62 1.839 3.209L32.66 78.559c1.012.588 2.666.588 3.678 0L67.16 60.634c1.013-.589 1.84-2.032 1.84-3.208V21.575c0-1.177-.828-2.62-1.839-3.208zM60.99 51.625a.719.719 0 0 1-.713.718h-5.67v5.711a.72.72 0 0 1-.713.718h-1.909a.72.72 0 0 1-.713-.718v-5.711h-5.67a.719.719 0 0 1-.712-.718v-1.923a.72.72 0 0 1 .713-.718h5.67v-5.712c0-.394.321-.718.712-.718h1.91c.39 0 .712.324.712.718v5.712h5.67a.72.72 0 0 1 .713.718v1.923z" fill="#D94D41"/></svg>