<svg xmlns="http://www.w3.org/2000/svg" width="22" height="22" viewBox="0 0 22 22">
    <g fill="none" fill-rule="evenodd" transform="translate(1 1)">
        <path fill="#C64439" d="M10.378 11.264H9.43a.374.374 0 0 1-.372-.372v-.36c0-1.812 1.908-1.704 1.908-2.832 0-.528-.576-.708-.996-.708-.78 0-1.092.336-1.188.912-.024.144-.132.264-.276.264H7.474c-.156 0-.276-.12-.264-.264.132-1.608 1.152-2.424 2.736-2.424 1.86 0 2.724 1.032 2.724 2.22 0 1.764-1.92 1.848-1.92 2.832v.36a.374.374 0 0 1-.372.372zm-.456.792c.612 0 1.032.42 1.032 1.032 0 .612-.42 1.032-1.032 1.032-.612 0-1.032-.42-1.032-1.032 0-.612.42-1.032 1.032-1.032z"/>
        <circle cx="10" cy="10" r="10" stroke="#C64439" stroke-width="1.5"/>
    </g>
</svg>
